<?xml version="1.0" encoding="iso-8859-1"?>
<!-- Generator: Adobe Illustrator 16.0.0, SVG Export Plug-In . SVG Version: 6.00 Build 0)  -->
<!DOCTYPE svg PUBLIC "-//W3C//DTD SVG 1.1//EN" "http://www.w3.org/Graphics/SVG/1.1/DTD/svg11.dtd">
<svg version="1.1" id="Capa_1" xmlns="http://www.w3.org/2000/svg" xmlns:xlink="http://www.w3.org/1999/xlink" x="0px" y="0px"
	 width="612px" height="612px" viewBox="0 0 612 612" style="enable-background:new 0 0 612 612;" xml:space="preserve">
<g>
	<path d="M556.366,486.54C612,486.54,612,430.99,612,430.99V181.011c0,0,0-55.551-55.634-55.551H55.634
		C0,125.461,0,181.011,0,181.011v249.978c0,0,0,55.551,55.634,55.551H556.366z M561.06,278.225
		c15.332,0,27.775,12.443,27.775,27.775s-12.443,27.775-27.775,27.775c-15.331,0-27.774-12.443-27.774-27.775
		S545.729,278.225,561.06,278.225z M69.438,153.236h444.404v305.528H69.438V153.236z M41.691,369.3c0,3.361-2.75,6.138-6.138,6.138
		h-1.639c-3.444,0-6.138-2.75-6.138-6.138v-126.6c0-3.361,2.75-6.138,6.138-6.138h1.639c3.472,0,6.138,2.75,6.138,6.138V369.3z"/>
</g>
<g>
</g>
<g>
</g>
<g>
</g>
<g>
</g>
<g>
</g>
<g>
</g>
<g>
</g>
<g>
</g>
<g>
</g>
<g>
</g>
<g>
</g>
<g>
</g>
<g>
</g>
<g>
</g>
<g>
</g>
</svg>
