<?xml version="1.0" encoding="iso-8859-1"?>
<!-- Generator: Adobe Illustrator 16.0.0, SVG Export Plug-In . SVG Version: 6.00 Build 0)  -->
<!DOCTYPE svg PUBLIC "-//W3C//DTD SVG 1.1//EN" "http://www.w3.org/Graphics/SVG/1.1/DTD/svg11.dtd">
<svg version="1.1" id="Capa_1" xmlns="http://www.w3.org/2000/svg" xmlns:xlink="http://www.w3.org/1999/xlink" x="0px" y="0px"
	 width="612px" height="612px" viewBox="0 0 612 612" style="enable-background:new 0 0 612 612;" xml:space="preserve">
<g>
	<path d="M556.363,528.546C612,528.546,612,471.212,612,471.212V140.787c0,0,0-57.333-55.637-57.333H55.636
		C0,83.454,0,140.787,0,140.787v330.452c0-0.027,0,57.307,55.636,57.307H556.363z M570.105,285.164
		c11.517,0,20.864,9.653,20.864,21.559c0,11.907-9.348,21.56-20.864,21.56s-20.863-9.652-20.863-21.56
		C549.242,294.816,558.589,285.164,570.105,285.164z M27.818,469.821V142.178c0,0,0-30.906,28.792-30.906h443.171
		c28.765,0,28.765,30.906,28.765,30.906v327.643c0,0,0,30.906-28.765,30.906H56.61C27.818,500.728,27.818,469.821,27.818,469.821z"
		/>
</g>
<g>
</g>
<g>
</g>
<g>
</g>
<g>
</g>
<g>
</g>
<g>
</g>
<g>
</g>
<g>
</g>
<g>
</g>
<g>
</g>
<g>
</g>
<g>
</g>
<g>
</g>
<g>
</g>
<g>
</g>
</svg>
